<?xml version="1.0" standalone="no"?>
<!DOCTYPE svg PUBLIC "-//W3C//DTD SVG 20010904//EN">
<svg version="1.0" xmlns="http://www.w3.org/2000/svg"
 width="225.000000pt" height="225.000000pt" viewBox="0 0 225.000000 225.000000"
 preserveAspectRatio="xMidYMid meet">
<metadata>
Created by potrace 1.14, written by Peter Selinger 2001-2017
</metadata>
<g transform="translate(0.000000,225.000000) scale(0.100000,-0.100000)"
fill="#000000" stroke="none">
<path d="M990 1953 c-312 -53 -571 -274 -669 -572 -34 -104 -39 -99 99 -100
107 -1 121 0 126 16 3 10 21 51 40 91 74 153 237 282 406 319 45 10 193 10
249 0 l46 -8 57 97 c31 53 58 101 59 107 4 22 -135 49 -263 52 -69 1 -136 0
-150 -2z"/>
<path d="M1594 1657 l-61 -103 43 -49 c151 -171 180 -433 73 -650 -28 -56 -41
-74 -106 -146 l-23 -25 59 -108 58 -108 50 44 c105 92 195 236 238 383 22 72
27 113 29 205 1 133 -4 178 -34 275 -28 89 -66 164 -122 240 -47 63 -124 145
-136 145 -4 0 -34 -47 -68 -103z"/>
<path d="M1006 1484 c-102 -33 -181 -103 -230 -204 -28 -58 -31 -74 -31 -156
1 -81 4 -97 32 -155 42 -83 99 -141 181 -181 61 -30 75 -33 157 -33 69 1 103
6 146 23 106 42 194 143 223 254 15 59 14 165 -2 203 -52 121 -103 180 -200
227 -53 26 -78 32 -145 35 -54 2 -99 -2 -131 -13z"/>
<path d="M296 962 c3 -21 15 -64 25 -96 119 -353 452 -585 824 -571 102 3 117
5 193 26 47 13 50 20 24 57 -10 15 -36 60 -58 100 l-38 72 -36 -7 c-19 -4 -75
-7 -125 -7 -157 1 -288 57 -405 173 -73 73 -113 135 -145 226 l-21 60 -122 2
-122 1 6 -36z"/>
</g>
</svg>
